<svg xmlns="http://www.w3.org/2000/svg" version="1.1" style="display: none;">
    <symbol id="searchIconMobile" width="24" height="24" viewBox="0 0 24 24">
        <svg width="24" height="24" viewBox="0 0 24 24" fill="none" xmlns="http://www.w3.org/2000/svg">
            <path d="M21.4427 19.7501L16.8375 14.9103C18.0216 13.488 18.6704 11.6985 18.6704 9.83546C18.6704 5.48275 15.1657 1.94141 10.8581 1.94141C6.55053 1.94141 3.0459 5.48275 3.0459 9.83546C3.0459 14.1882 6.55053 17.7295 10.8581 17.7295C12.4753 17.7295 14.0163 17.2367 15.3339 16.301L19.974 21.1775C20.1679 21.381 20.4288 21.4933 20.7083 21.4933C20.9729 21.4933 21.2239 21.3913 21.4145 21.206C21.8194 20.8123 21.8323 20.1595 21.4427 19.7501ZM10.8581 4.00073C14.0421 4.00073 16.6324 6.61812 16.6324 9.83546C16.6324 13.0528 14.0421 15.6702 10.8581 15.6702C7.67414 15.6702 5.08387 13.0528 5.08387 9.83546C5.08387 6.61812 7.67414 4.00073 10.8581 4.00073Z" fill="white"/>
        </svg>
    </symbol>
    <symbol id="searchIconInput" width="24" height="24" viewBox="0 0 24 24">
        <svg width="24" height="24" viewBox="0 0 24 24" fill="none" xmlns="http://www.w3.org/2000/svg">
            <path d="M21.4427 19.7501L16.8375 14.9103C18.0216 13.488 18.6704 11.6985 18.6704 9.83546C18.6704 5.48275 15.1657 1.94141 10.8581 1.94141C6.55053 1.94141 3.0459 5.48275 3.0459 9.83546C3.0459 14.1882 6.55053 17.7295 10.8581 17.7295C12.4753 17.7295 14.0163 17.2367 15.3339 16.301L19.974 21.1775C20.1679 21.381 20.4288 21.4933 20.7083 21.4933C20.9729 21.4933 21.2239 21.3913 21.4145 21.206C21.8194 20.8123 21.8323 20.1595 21.4427 19.7501ZM10.8581 4.00073C14.0421 4.00073 16.6324 6.61812 16.6324 9.83546C16.6324 13.0528 14.0421 15.6702 10.8581 15.6702C7.67414 15.6702 5.08387 13.0528 5.08387 9.83546C5.08387 6.61812 7.67414 4.00073 10.8581 4.00073Z" fill="white"/>
        </svg>
    </symbol>
    <symbol id="star" width="25" height="25" viewBox="0 0 25 25">
        <svg width="25" height="25" viewBox="0 0 25 25" fill="none" xmlns="http://www.w3.org/2000/svg">
            <path d="M11.5858 2.68579C11.9533 1.94497 13.01 1.94497 13.3775 2.68579L15.6962 7.36013C15.8423 7.65456 16.1237 7.85843 16.449 7.90546L21.6254 8.6538C22.4472 8.7726 22.7746 9.7833 22.1785 10.3614L18.4393 13.9876C18.2022 14.2176 18.0939 14.5498 18.1501 14.8753L19.0336 20.0008C19.1743 20.817 18.3186 21.4406 17.5847 21.0568L12.9451 18.63C12.6548 18.4782 12.3085 18.4782 12.0182 18.63L7.37858 21.0568C6.64466 21.4406 5.78893 20.817 5.92964 20.0008L6.81323 14.8753C6.86935 14.5498 6.76108 14.2176 6.52395 13.9876L2.78478 10.3614C2.18869 9.7833 2.51607 8.7726 3.33788 8.6538L8.5143 7.90546C8.83959 7.85843 9.121 7.65456 9.26706 7.36013L11.5858 2.68579Z" fill="#ED2F3A"/>
            <path d="M12.0337 2.90798C12.2175 2.53757 12.7458 2.53757 12.9296 2.90798L15.2483 7.58232C15.4674 8.02397 15.8895 8.32977 16.3774 8.40031L21.5539 9.14865C21.9648 9.20806 22.1285 9.7134 21.8304 10.0024L18.0912 13.6286C17.7355 13.9736 17.5731 14.472 17.6573 14.9603L18.5409 20.0857C18.6113 20.4938 18.1834 20.8057 17.8164 20.6137L13.1769 18.187C12.7414 17.9592 12.2219 17.9592 11.7864 18.187L7.14684 20.6137C6.77988 20.8057 6.35202 20.4938 6.42237 20.0857L7.30596 14.9603C7.39014 14.472 7.22774 13.9736 6.87204 13.6286L3.13287 10.0024C2.83483 9.71341 2.99851 9.20806 3.40942 9.14865L8.58584 8.40031C9.07377 8.32977 9.49589 8.02397 9.71497 7.58232L12.0337 2.90798Z" stroke="black" stroke-opacity="0.3"/>
        </svg>
    </symbol>
    <symbol id="magnify" width="13" height="13" viewBox="0 0 13 13">
        <svg width="13" height="13" viewBox="0 0 13 13" fill="none" xmlns="http://www.w3.org/2000/svg">
            <g opacity="0.5" clip-path="url(#clip0_2008_717)">
                <path d="M12.3401 10.3626L10.198 8.22562C10.1872 8.21482 10.1745 8.2069 10.1632 8.19922C9.97073 8.49514 9.74057 8.77643 9.48088 9.03612C9.22144 9.2958 8.93967 9.52597 8.64062 9.71893C8.65119 9.72997 8.65911 9.74293 8.66991 9.75349L10.8076 11.8953C11.2308 12.3177 11.9179 12.3172 12.3396 11.8953C12.7617 11.4729 12.762 10.7855 12.3401 10.3626Z" fill="white"/>
                <path d="M9.17543 1.66999C7.22947 -0.275492 4.06381 -0.275492 2.11761 1.67047C0.16949 3.61595 0.16925 6.78401 2.11617 8.73021C4.06309 10.6754 7.22947 10.6754 9.17543 8.72997C11.1214 6.78401 11.1211 3.61571 9.17543 1.66999ZM3.03347 7.81387C1.59272 6.37312 1.5932 4.02755 3.03395 2.58824C4.4747 1.14774 6.81882 1.14774 8.25909 2.58752C9.69888 4.02755 9.6984 6.37048 8.25909 7.81339C6.81858 9.24958 4.4747 9.25486 3.03347 7.81387Z" fill="white"/>
                <path d="M4.05783 5.6025C3.95199 5.16761 3.51614 4.56424 3.14941 4.75649C2.85877 4.90481 2.94061 5.58498 3.07765 5.98723C3.69014 7.81631 5.91763 8.20295 6.14923 7.97159C6.377 7.74407 4.47736 7.32358 4.05783 5.6025Z" fill="white"/>
            </g>
            <defs>
                <clipPath id="clip0_2008_717">
                    <rect width="12" height="12" fill="white" transform="translate(0.65625 0.210938)"/>
                </clipPath>
            </defs>
        </svg>
    </symbol>
    <symbol id="expand" width="14" height="13" viewBox="0 0 14 13">
        <svg width="14" height="13" viewBox="0 0 14 13" fill="none" xmlns="http://www.w3.org/2000/svg">
            <g clip-path="url(#clip0_186_1064)">
                <path d="M11.6315 3.15625L6.96866 7.81907L2.30584 3.15625L0.886719 4.57537L6.96866 10.6573L13.0506 4.57537L11.6315 3.15625Z" fill="#E4EBEC"/>
            </g>
            <defs>
                <clipPath id="clip0_186_1064">
                    <rect x="0.886719" y="0.825195" width="12.1639" height="12.1639" rx="5" fill="white"/>
                </clipPath>
            </defs>
        </svg>
    </symbol>
    <symbol id="sliderprev" width="36" height="14" viewBox="0 0 36 14">
        <svg width="36" height="14" viewBox="0 0 36 14" fill="none" xmlns="http://www.w3.org/2000/svg">
            <path d="M0.948505 7.94542C0.597031 7.59395 0.597031 7.0241 0.948505 6.67262L6.67607 0.94506C7.02754 0.593588 7.59739 0.593588 7.94886 0.94506C8.30033 1.29653 8.30033 1.86638 7.94886 2.21785L2.85769 7.30902L7.94886 12.4002C8.30033 12.7517 8.30033 13.3215 7.94886 13.673C7.59739 14.0245 7.02754 14.0245 6.67607 13.673L0.948505 7.94542ZM35.2404 8.20902H1.5849V6.40902H35.2404V8.20902Z" fill="black"/>
        </svg>
    </symbol>
    <symbol id="slidernext" width="36" height="15" viewBox="0 0 36 15">
        <svg width="36" height="15" viewBox="0 0 36 15" fill="none" xmlns="http://www.w3.org/2000/svg">
            <path d="M34.8777 8.21977C35.2291 7.8683 35.2291 7.29845 34.8777 6.94698L29.1501 1.21941C28.7986 0.867941 28.2288 0.867941 27.8773 1.21941C27.5258 1.57089 27.5258 2.14073 27.8773 2.49221L32.9685 7.58337L27.8773 12.6745C27.5258 13.026 27.5258 13.5959 27.8773 13.9473C28.2288 14.2988 28.7986 14.2988 29.1501 13.9473L34.8777 8.21977ZM0.585785 8.48337H34.2413V6.68337H0.585785V8.48337Z" fill="black"/>
        </svg>
    </symbol>
    <symbol id="signIn" width="26" height="26" viewBox="0 0 26 26">
        <svg width="26" height="26" viewBox="0 0 26 26" fill="none" xmlns="http://www.w3.org/2000/svg">
            <circle cx="12.8433" cy="12.7573" r="12.7573" fill="#00529D"/>
            <circle cx="12.8288" cy="9.80828" r="5.403" fill="#000F43"/>
            <path d="M12.802 16.3232C7.80677 16.3244 4.90625 20.0303 4.90625 20.0303C4.90625 20.0303 7.48483 23.7524 12.802 23.6539C18.1191 23.5555 20.7782 20.0303 20.7782 20.0303C20.7782 20.0303 17.7972 16.3221 12.802 16.3232Z" fill="#000F43"/>
        </svg>
    </symbol>
    <symbol id="plane" width="120" height="122" viewBox="0 0 120 122">
        <svg width="120" height="122" viewBox="0 0 120 122" fill="none" xmlns="http://www.w3.org/2000/svg">
            <g opacity="0.05">
                <path d="M1.875 40.1875L28.9875 61.8541L28.125 110.141L55.2375 84.5416L75 104.469L118.125 11.8281L1.875 40.1875Z" fill="#E6E6E6"/>
                <path d="M118.125 11.8281L44.1375 73.3491L28.125 110.141L28.9875 61.8541L118.125 11.8281Z" fill="#777777"/>
                <path d="M55.2375 84.5411L28.125 110.14L44.1375 73.3486L55.2375 84.5411Z" fill="#C3C3C3"/>
            </g>
        </svg>
    </symbol>
</svg>